<svg width="24" height="24" viewBox="0 0 24 24" fill="none" xmlns="http://www.w3.org/2000/svg">
	<g id="24 / symbols / dribbble">
		<path id="icon" fill-rule="evenodd" clip-rule="evenodd" d="M12 23C5.92487 23 1 18.0751 1 12C1 5.92487 5.92487 1 12 1C18.0751 1 23 5.92487 23 12C23 18.0751 18.0751 23 12 23ZM20.9364 13.0754C20.9784 12.7228 21 12.3639 21 12C21 11.0282 20.846 10.0924 20.561 9.21559C20.3666 9.75288 20.13 10.3056 19.8474 10.8603C20.3014 11.5703 20.6748 12.3106 20.9364 13.0754ZM18.6892 18.0213L18.6389 17.9916C19.4255 16.6591 19.5172 15.3376 19.1384 14.0221C19.0216 13.6165 18.859 13.209 18.6551 12.8014C18.0594 13.6154 17.3492 14.3989 16.5115 15.1066C15.9145 15.6109 15.2573 16.0728 14.5368 16.4782C14.6841 16.7334 14.8199 16.9893 14.9428 17.2453C15.3993 18.1967 15.7003 19.2015 15.7104 20.202C16.8498 19.6857 17.8626 18.939 18.6892 18.0213ZM13.6479 20.8495C13.8117 20.0933 13.6538 19.182 13.1396 18.1106C13.0155 17.8519 12.8731 17.5894 12.7141 17.324C10.6966 18.078 8.28355 18.4237 5.42951 18.1505C7.07174 19.9042 9.4079 21 12 21C12.5629 21 13.1137 20.9483 13.6479 20.8495ZM19.1951 6.59257C17.5528 4.41079 14.9411 3 12 3C11.5471 3 11.102 3.03345 10.6671 3.09802C13.1565 4.44013 15.9677 6.36181 18.0743 8.61043C18.2117 8.75705 18.3466 8.90564 18.4786 9.05612C18.8441 8.17353 19.076 7.32549 19.1951 6.59257ZM7.92989 3.97074C10.6137 5.1827 14.1745 7.37312 16.6147 9.97781C16.925 10.3089 17.2137 10.6432 17.4784 10.9796C16.8918 11.9005 16.1468 12.7965 15.2209 13.5787C14.6866 14.03 14.0869 14.448 13.4151 14.8126C12.9218 14.1676 12.3728 13.5351 11.7932 12.9247C9.55516 10.5677 6.74087 8.41579 4.51906 6.99475C5.3754 5.71738 6.55023 4.67149 7.92989 3.97074ZM3 12C3 13.4055 3.32217 14.7357 3.8967 15.9209C6.99312 16.4773 9.49645 16.2737 11.5096 15.6255C11.1526 15.1851 10.7614 14.7426 10.3428 14.3018C8.28291 12.1324 5.67519 10.1246 3.59402 8.77771C3.21028 9.77815 3 10.8645 3 12Z" fill="black"/>
	</g>
</svg>
